<svg xmlns="http://www.w3.org/2000/svg" width="500.191" height="59.76" viewBox="0 0 1674 200">
  <defs>
    <style>
      .cls-1 {
        fill: #fff;
        fill-rule: evenodd;
      }
    </style>
  </defs>
  <path id="RUNYAN_CO._copy" data-name="RUNYAN CO. copy" class="cls-1" d="M0.14,194.24h41.6V118.773H62.274L101.74,194.24h49.867l-48-79.734q20-3.73,30.4-17.733t10.4-34q0-16.531-5.733-27.6a46.581,46.581,0,0,0-15.467-17.6A64.911,64.911,0,0,0,100.54,8.24a128.937,128.937,0,0,0-27.333-2.8H0.14v188.8Zm41.6-153.6h27.2a84.851,84.851,0,0,1,11.467.8,33.244,33.244,0,0,1,10.4,3.067,19.62,19.62,0,0,1,7.467,6.533q2.931,4.269,2.933,11.467,0,7.737-3.333,12a19.626,19.626,0,0,1-8.4,6.267,37.2,37.2,0,0,1-11.333,2.4q-6.269.4-11.867,0.4H41.74V40.64Zm290.4-35.2h-41.6v114.4a45.951,45.951,0,0,1-2.8,16.266,38.87,38.87,0,0,1-7.867,12.934,36.034,36.034,0,0,1-12,8.533,37.149,37.149,0,0,1-15.2,3.067,38.057,38.057,0,0,1-15.333-3.067,35.628,35.628,0,0,1-12.133-8.533,38.8,38.8,0,0,1-7.867-12.934,45.951,45.951,0,0,1-2.8-16.266V5.44h-41.6v116a91.023,91.023,0,0,0,5.067,30.933,68.01,68.01,0,0,0,15.066,24.533,68.943,68.943,0,0,0,24.934,16.267q14.931,5.862,34.666,5.867,19.463,0,34.4-5.867a68.977,68.977,0,0,0,24.934-16.267,68.065,68.065,0,0,0,15.066-24.533,91.121,91.121,0,0,0,5.067-30.933V5.44Zm38.4,188.8h41.6V59.84h0.534l82.4,134.4h54.4V5.44h-41.6v131.2h-0.534L427.072,5.44H370.538v188.8Zm263.73,0h41.6V113.706L746.8,5.44H697.468l-42.4,70.667-40-70.667H563.335l70.933,108.266V194.24Zm87.2,0h45.866l15.734-40H856.4l16.267,40H919.6L837.47,5.44h-34.4Zm120.8-75.2H796.136L819.07,60.373Zm96.266,75.2h41.6V59.84h0.533l82.4,134.4h54.4V5.44h-41.6v131.2h-0.53L995.069,5.44H938.536v188.8Zm443.994-40.534a58.043,58.043,0,0,1-11.73,13.2,72.7,72.7,0,0,1-14,9.067,69.222,69.222,0,0,1-30,7.067q-18.4,0-33.2-6.4a73.93,73.93,0,0,1-25.2-17.6,77.727,77.727,0,0,1-16-26.4,94,94,0,0,1-5.6-32.8,94,94,0,0,1,5.6-32.8,77.721,77.721,0,0,1,16-26.4,73.918,73.918,0,0,1,25.2-17.6q14.79-6.4,33.2-6.4a68.357,68.357,0,0,1,28.13,6.133,52.2,52.2,0,0,1,22.53,19.467l14.4-12q-12.54-16-29.2-22.8A93.986,93.986,0,0,0,1326.8.64a102.419,102.419,0,0,0-39.6,7.467,90.746,90.746,0,0,0-30.8,20.667,94.492,94.492,0,0,0-20,31.333,106.745,106.745,0,0,0-7.2,39.733,107.761,107.761,0,0,0,7.2,39.866,94.153,94.153,0,0,0,20,31.467,89.118,89.118,0,0,0,30.8,20.533,104.019,104.019,0,0,0,39.6,7.334,93.515,93.515,0,0,0,38.66-8q17.865-8,31.47-26.4Zm41.6-14a94.153,94.153,0,0,0,20,31.467,89.118,89.118,0,0,0,30.8,20.533,110.577,110.577,0,0,0,79.2,0,89.212,89.212,0,0,0,30.8-20.533,94.31,94.31,0,0,0,20-31.467,107.761,107.761,0,0,0,7.2-39.866,106.745,106.745,0,0,0-7.2-39.733,94.651,94.651,0,0,0-20-31.333,90.844,90.844,0,0,0-30.8-20.667,108.744,108.744,0,0,0-79.2,0,90.746,90.746,0,0,0-30.8,20.667,94.492,94.492,0,0,0-20,31.333,106.745,106.745,0,0,0-7.2,39.733A107.761,107.761,0,0,0,1424.13,139.706Zm16-72.666a77.721,77.721,0,0,1,16-26.4,73.918,73.918,0,0,1,25.2-17.6q14.79-6.4,33.2-6.4a82.87,82.87,0,0,1,33.2,6.4,74.111,74.111,0,0,1,25.2,17.6,78.038,78.038,0,0,1,16,26.4,94.226,94.226,0,0,1,5.6,32.8,94.23,94.23,0,0,1-5.6,32.8,78.043,78.043,0,0,1-16,26.4,74.124,74.124,0,0,1-25.2,17.6,82.88,82.88,0,0,1-33.2,6.4q-18.4,0-33.2-6.4a73.93,73.93,0,0,1-25.2-17.6,77.727,77.727,0,0,1-16-26.4,94,94,0,0,1-5.6-32.8A94,94,0,0,1,1440.13,67.04Zm211.2,125.066a12.859,12.859,0,1,0-3.74-9.066A12.344,12.344,0,0,0,1651.33,192.106Z"/>
</svg>
