<svg xmlns="http://www.w3.org/2000/svg" width="499.79" height="121.9" viewBox="0 0 2050 500">
  <defs>
    <style>
      .cls-1 {
        fill: #fff;
        fill-rule: evenodd;
      }
    </style>
  </defs>
  <path id="RUNYAN_CO._copy" data-name="RUNYAN CO. copy" class="cls-1" d="M0,0H2050V500H0V0ZM188.14,352.24h41.6V276.773h20.534L289.74,352.24h49.867l-48-79.734q20-3.73,30.4-17.733t10.4-34q0-16.531-5.733-27.6a46.578,46.578,0,0,0-15.467-17.6,64.9,64.9,0,0,0-22.667-9.333,128.919,128.919,0,0,0-27.333-2.8H188.14v188.8Zm41.6-153.6h27.2a84.729,84.729,0,0,1,11.467.8,33.243,33.243,0,0,1,10.4,3.066,19.627,19.627,0,0,1,7.467,6.534q2.931,4.269,2.933,11.466,0,7.738-3.333,12a19.622,19.622,0,0,1-8.4,6.267,37.222,37.222,0,0,1-11.334,2.4q-6.268.4-11.866,0.4H229.74V198.64Zm290.4-35.2h-41.6v114.4a45.951,45.951,0,0,1-2.8,16.266,38.87,38.87,0,0,1-7.867,12.934,36.034,36.034,0,0,1-12,8.533,37.149,37.149,0,0,1-15.2,3.067,38.057,38.057,0,0,1-15.333-3.067,35.628,35.628,0,0,1-12.133-8.533,38.8,38.8,0,0,1-7.867-12.934,45.951,45.951,0,0,1-2.8-16.266V163.44h-41.6v116a91.023,91.023,0,0,0,5.067,30.933,68.01,68.01,0,0,0,15.066,24.533,68.943,68.943,0,0,0,24.934,16.267q14.931,5.862,34.666,5.867,19.462,0,34.4-5.867a68.977,68.977,0,0,0,24.934-16.267,68.065,68.065,0,0,0,15.066-24.533,91.121,91.121,0,0,0,5.067-30.933v-116Zm38.4,188.8h41.6V217.84h0.534l82.4,134.4h54.4V163.44h-41.6v131.2h-0.534l-80.266-131.2H558.538v188.8Zm263.73,0h41.6V271.706L934.8,163.44H885.468l-42.4,70.666-40-70.666H751.335l70.933,108.266V352.24Zm87.2,0h45.866l15.734-40h73.33l16.27,40h46.93l-82.13-188.8h-34.4Zm120.8-75.2H984.136l22.934-58.667Zm96.27,75.2h41.6V217.84h0.53l82.4,134.4h54.4V163.44h-41.6v131.2h-0.53l-80.27-131.2h-56.53v188.8Zm443.99-40.534a58.043,58.043,0,0,1-11.73,13.2,72.7,72.7,0,0,1-14,9.067,69.222,69.222,0,0,1-30,7.067q-18.4,0-33.2-6.4a73.93,73.93,0,0,1-25.2-17.6,77.727,77.727,0,0,1-16-26.4,98.857,98.857,0,0,1,0-65.6,77.708,77.708,0,0,1,16-26.4,73.9,73.9,0,0,1,25.2-17.6q14.79-6.4,33.2-6.4a68.364,68.364,0,0,1,28.13,6.133,52.2,52.2,0,0,1,22.53,19.467l14.4-12q-12.54-16-29.2-22.8a93.973,93.973,0,0,0-35.86-6.8,102.419,102.419,0,0,0-39.6,7.466,90.759,90.759,0,0,0-30.8,20.667,94.5,94.5,0,0,0-20,31.333,113.6,113.6,0,0,0,0,79.6,94.153,94.153,0,0,0,20,31.467,89.118,89.118,0,0,0,30.8,20.533,104.019,104.019,0,0,0,39.6,7.334,93.515,93.515,0,0,0,38.66-8q17.865-8,31.47-26.4Zm41.6-14a94.153,94.153,0,0,0,20,31.467,89.118,89.118,0,0,0,30.8,20.533,110.577,110.577,0,0,0,79.2,0,89.212,89.212,0,0,0,30.8-20.533,94.31,94.31,0,0,0,20-31.467,113.6,113.6,0,0,0,0-79.6,94.655,94.655,0,0,0-20-31.333,90.856,90.856,0,0,0-30.8-20.667,108.753,108.753,0,0,0-79.2,0,90.759,90.759,0,0,0-30.8,20.667,94.5,94.5,0,0,0-20,31.333A113.6,113.6,0,0,0,1612.13,297.706Zm16-72.666a77.708,77.708,0,0,1,16-26.4,73.9,73.9,0,0,1,25.2-17.6q14.79-6.4,33.2-6.4a82.863,82.863,0,0,1,33.2,6.4,74.1,74.1,0,0,1,25.2,17.6,78.024,78.024,0,0,1,16,26.4,98.857,98.857,0,0,1,0,65.6,78.043,78.043,0,0,1-16,26.4,74.124,74.124,0,0,1-25.2,17.6,82.88,82.88,0,0,1-33.2,6.4q-18.4,0-33.2-6.4a73.93,73.93,0,0,1-25.2-17.6,77.727,77.727,0,0,1-16-26.4A98.857,98.857,0,0,1,1628.13,225.04Zm211.2,125.066a12.859,12.859,0,1,0-3.74-9.066A12.344,12.344,0,0,0,1839.33,350.106Z"/>
</svg>
